PathFileType	4	(X/Y/Z)	65_2_13_p0_0-220.trc
DataRate	CameraRate	NumFrames	NumMarkers	Units	OrigDataRate	OrigDataStartFrame	OrigNumFrames
50.0	50.0	5	27	m	50.0	193	221
Frame#	Time	RHip			RKnee			RAnkle			RBigToe			RSmallToe			RHeel			LHip			LKnee			LAnkle			LBigToe			LSmallToe			LHeel			Neck			Head			Nose			RShoulder			RElbow			RWrist			RThumb			RIndex			RPinky			LShoulder			LElbow			LWrist			LThumb			LIndex			LPinky			
		X1	Y1	Z1	X2	Y2	Z2	X3	Y3	Z3	X4	Y4	Z4	X5	Y5	Z5	X6	Y6	Z6	X7	Y7	Z7	X8	Y8	Z8	X9	Y9	Z9	X10	Y10	Z10	X11	Y11	Z11	X12	Y12	Z12	X13	Y13	Z13	X14	Y14	Z14	X15	Y15	Z15	X16	Y16	Z16	X17	Y17	Z17	X18	Y18	Z18	X19	Y19	Z19	X20	Y20	Z20	X21	Y21	Z21	X22	Y22	Z22	X23	Y23	Z23	X24	Y24	Z24	X25	Y25	Z25	X26	Y26	Z26	X27	Y27	Z27	
193	3.86	0.37993947761739094	0.6925380820473166	0.3577036956414165	0.36654696676171755	0.869320610500678	0.7475181385877498	0.2894351026134442	1.008291486177889	1.1530833927483506	0.2859544825184931	0.9095806964241605	1.2275160199474549	0.33034103057785813	0.9049524490166727	1.218217156101379	0.2642380066529048	1.098982841096539	1.1950663302935822	0.17040069198495494	0.7117548079052173	0.3435447984859399	0.1323309292355506	0.8847926531472808	0.7250056467582713	0.1019425814865783	1.0340966838803625	1.1425033808523672	0.11630327673243608	0.845744950801921	1.1840620531676829	0.06208288318674391	0.9105272441199311	1.1809842248369946	0.10958630679046996	1.0439682214104824	1.1726418729528434	0.34658212270484795	0.5401414054081031	-0.2275067791972402	0.38491879363154213	0.42813812628893655	-0.46251815650671163	0.356578381749864	0.37990021154137016	-0.3053255362882237	0.48613467073460337	0.5486777752216012	-0.12287562466514733	0.5304035124307244	0.5255202672542724	0.15079939994046593	0.3652405660926099	0.48280110711546087	0.31977865560622015	0.27331269748103587	0.508868767111335	0.37875447921353567	0.2646218712857835	0.5226139442186675	0.3824361985630433	0.27258223074688037	0.5488785611920237	0.3696021318198505	0.18959626081720804	0.5343606991764537	-0.16537050360812855	0.12158227727761503	0.5261490081192638	0.08785423537027254	0.2127437823097474	0.5110477495136785	0.3047470407352335	0.2994582144907375	0.49065177323651743	0.3567959346555921	0.30208506134265495	0.5069566428821114	0.3838178383195878	0.28433281771615676	0.5547751500806313	0.4001491365040989
194	3.88	0.3789146987889459	0.6943381692448496	0.3616488688576368	0.36112876894394136	0.8854894141935139	0.7500689978521959	0.2893940678541761	1.0081549334732836	1.1530487431659548	0.286364173099886	0.9122907812821439	1.2289827113674008	0.33802990974498065	0.9053639088309724	1.2189027972845892	0.26134722087055917	1.0867507332614033	1.1915247517600562	0.17040746149500308	0.7121746777861593	0.34351762929043916	0.13232653929801869	0.8848860661759871	0.7250833452007027	0.10194864933102012	1.0341085011840998	1.1428410237378848	0.11649682859526438	0.8467309578543875	1.1841306815126584	0.06240373486732974	0.912737922873131	1.18109779990705	0.10979192422779005	1.0453272354353915	1.1724636218761453	0.34656647562386206	0.5400936434220377	-0.2274692514779021	0.38499182089021183	0.42815779172430096	-0.46246308040064726	0.3561388850310446	0.3808563701334765	-0.30199900076967157	0.4861521400846085	0.5487457171374353	-0.1228974492634771	0.5303920841413027	0.5255000926968791	0.150909004413201	0.3654515625419469	0.484746835129796	0.32312821742400555	0.2731269906905325	0.5093217064678711	0.37506927863837053	0.26446263473618997	0.522871164000897	0.38197824006867215	0.2724283022280315	0.5485466243623647	0.3730681053430845	0.18953483821510234	0.5342157978712474	-0.1653411329408103	0.12067884593957535	0.5274013415721706	0.09124358356334468	0.21268809414915435	0.5112574371016231	0.30487430808310684	0.29640078212650534	0.47951858441856954	0.3558582567591163	0.3058991948429194	0.5078805270585866	0.3805041251501892	0.28428370297313504	0.554480013754498	0.40383561004787055
195	3.9	0.3797373893148308	0.6925220742923358	0.3576704330321414	0.3665739354095977	0.8692924854707623	0.7475938324399047	0.2893916739343454	1.008387641758218	1.1530653368291466	0.2860108111759293	0.9096618662255695	1.2276112663089598	0.33048254230909974	0.9047046129006752	1.218281417816072	0.26443711790405283	1.0989018368708416	1.1952240283008086	0.17040050578862445	0.711926832882334	0.3435832072397731	0.13232002246108726	0.8847340454181939	0.7249120151074581	0.10195431424897444	1.0339990682161775	1.1427171334824293	0.11637705170058177	0.8455483180304678	1.1840955400456457	0.06228761456846975	0.9102818270005184	1.180925472178385	0.10961761862322937	1.0439769369533134	1.1727333938688413	0.34656857082697123	0.5400466606537349	-0.2274614370444796	0.3850401886311341	0.4280530910098809	-0.462448638319131	0.3562259316381377	0.3808025122101166	-0.30194881472818486	0.48617717074185146	0.548760865535644	-0.12289879074362506	0.5304451233179903	0.5255842991355291	0.15096676390019984	0.36630584035645253	0.48353812019478243	0.31965062520339604	0.27758869668183084	0.5203520684952083	0.37611686626558766	0.2647375127395062	0.5224240758851296	0.3821577730059201	0.27246074685113875	0.5485108283541926	0.37323834570341613	0.1894596929141127	0.5343140602159162	-0.1653320967004364	0.12067971265944653	0.5274377354729057	0.0912847092652176	0.2087657783535681	0.5104666798996751	0.3082862471154875	0.3036712882669434	0.476737308488412	0.3563491858035105	0.31032314669963496	0.49451567398089585	0.3801314016596254	0.28434111300367765	0.554282118639132	0.4038815398983005
196	3.92	0.3760157279570691	0.6809920622199958	0.36108074087383824	0.36254564863485145	0.8860398906297707	0.7499088202268333	0.2894419784623408	1.008717526628725	1.1531806707465726	0.2857784982968561	0.9086790051949618	1.2268857084353504	0.3298730523592018	0.9022429278642045	1.2173790327715037	0.26431922161725363	1.0989486867007099	1.1951314693171866	0.17040162584232416	0.7138690621058127	0.34726942635687535	0.13378161980704104	0.8863229984177722	0.7255290397828396	0.10568799776942936	1.0360597413993797	1.1434916933716976	0.11381417327202265	0.8311454370418025	1.1796042498548767	0.061712693281091385	0.906127966417158	1.176033471723042	0.11424793446327487	1.0499854303851286	1.1790006782951021	0.34660520079792984	0.5400908361593773	-0.22750937429780255	0.3849687019756306	0.42785398045383966	-0.4624697297401221	0.35629909447104957	0.38085145807396076	-0.3019877983170209	0.4861960763883905	0.5489017826608209	-0.12289244781718604	0.5303713998177918	0.5254823067018526	0.1510209553548966	0.3654625549145039	0.484726436343151	0.32332529360995854	0.27662542473419655	0.5216907431658804	0.3794104193524912	0.2645339757795404	0.5222818525134904	0.38573185722896264	0.27240526372379575	0.5482449807464291	0.3731898342858296	0.1895218147620224	0.5344722416868247	-0.1653206455008355	0.12067699770949983	0.5274651268893383	0.0912470638497704	0.20781271672866364	0.5113094724019045	0.311595583272381	0.3004546165426974	0.46550604676147755	0.3556902719750426	0.31027416836723626	0.4943994126934238	0.38012513816951793	0.2796244211370299	0.5544290944819991	0.40751917997369697
197	3.94	0.37575765325508026	0.6786618186157765	0.35690629931472384	0.36250441763624386	0.8860258258732167	0.7497879847533487	0.2894064053745658	1.0086931579608456	1.153144897194982	0.28355456808518686	0.8967593336247035	1.2260574240725088	0.3296909583511397	0.8990403877075627	1.2165616888119888	0.26421766313199996	1.0976195921780376	1.1947267479122934	0.16774185682026727	0.7003225374275021	0.34645036448608124	0.1337526144908169	0.8862605727198325	0.7254251430585709	0.10572189050141428	1.0360561771931078	1.1434113348444477	0.11387030561029221	0.8307323033901776	1.1796783645727513	0.06188204608149586	0.9053993356347874	1.1758631653653846	0.11439635539050426	1.0502759045920396	1.1751587199483045	0.34664207181758455	0.5400543240258352	-0.227552403468665	0.38498768052646476	0.42792018810553695	-0.4624457906895644	0.3562547263249367	0.3808680671408333	-0.3020187771745286	0.4860536925649808	0.5489092742788986	-0.11967936945703679	0.5303905981600692	0.5255591246239214	0.151014385076601	0.3662813364490001	0.4834046096606994	0.3197601003588896	0.2775218803566631	0.5205604241864594	0.37631871110763143	0.2680129493226144	0.5353574028892893	0.38312936120852475	0.2724251548258593	0.5482979981773506	0.37327049095771586	0.18950255596208	0.534379026376976	-0.165359664927116	0.12061692569291053	0.527243240329716	0.0912398970603565	0.2077149590948298	0.5114567289602366	0.3117266691374036	0.3035354862694637	0.47692264058707984	0.356391173733181	0.31021378489950086	0.49448351431696846	0.3801547175847682	0.28053531595912634	0.552918494525282	0.40388446393127114
